<?xml version="1.0" encoding="UTF-8" standalone="no"?>
<!-- Created with Inkscape (http://www.inkscape.org/) -->

<svg
   version="1.1"
   id="svg1"
   width="1024"
   height="1024"
   viewBox="0 0 1024 1024"
   sodipodi:docname="owl.svg"
   inkscape:version="1.3.1 (9b9bdc1480, 2023-11-25, custom)"
   xmlns:inkscape="http://www.inkscape.org/namespaces/inkscape"
   xmlns:sodipodi="http://sodipodi.sourceforge.net/DTD/sodipodi-0.dtd"
   xmlns="http://www.w3.org/2000/svg"
   xmlns:svg="http://www.w3.org/2000/svg">
  <defs
     id="defs1">
    <clipPath
       clipPathUnits="userSpaceOnUse"
       id="clipPath10">
      <rect
         style="opacity:0.79;fill:#000000"
         id="rect10"
         width="526.15527"
         height="469.82678"
         x="245.81778"
         y="283.74353" />
    </clipPath>
  </defs>
  <sodipodi:namedview
     id="namedview1"
     pagecolor="#ffffff"
     bordercolor="#000000"
     borderopacity="0.25"
     inkscape:showpageshadow="2"
     inkscape:pageopacity="0.0"
     inkscape:pagecheckerboard="true"
     inkscape:deskcolor="#d1d1d1"
     inkscape:zoom="0.86816406"
     inkscape:cx="691.68954"
     inkscape:cy="512"
     inkscape:window-width="1920"
     inkscape:window-height="1131"
     inkscape:window-x="0"
     inkscape:window-y="0"
     inkscape:window-maximized="1"
     inkscape:current-layer="g1" />
  <g
     inkscape:groupmode="layer"
     inkscape:label="Image"
     id="g1">
    <path
       style="fill:#000000"
       d="m 505.99213,721.84013 c -5.49682,-4.5354 -48.83388,-37.10718 -63,-47.35028 -22.32752,-16.14437 -49.69236,-41.98542 -65,-61.3805 -10.03254,-12.71144 -22.56227,-32.90482 -27.42612,-44.20096 -3.35299,-7.78723 -8.57388,-24.25612 -8.57388,-27.04565 0,-0.85461 2.66144,0.35372 7.0921,3.21989 15.62419,10.10724 26.88117,13.98949 55.9079,19.28123 25.11771,4.57911 35.40583,8.43222 53,19.8496 10.70294,6.94546 25.73014,22.0062 33.26653,33.3408 6.24683,9.39511 12.99405,22.98941 17.49876,35.25646 l 2.88498,7.85628 3.32008,-9.35628 c 11.81994,-33.30964 33.19041,-58.79165 61.77927,-73.66521 11.27673,-5.8668 23.36005,-9.57446 46.0926,-14.1431 27.00784,-5.42787 39.40658,-9.75075 51.65778,-18.01074 6.94264,-4.68086 6.79196,-4.65796 6.00247,-0.91234 -1.30441,6.18854 -6.43951,20.98394 -10.08605,29.06021 -9.83415,21.78045 -21.76447,38.13729 -44.41481,60.89403 -23.92493,24.03733 -30.00967,29.01259 -84.98788,69.49134 -7.41745,5.46124 -16.96001,12.74203 -21.2057,16.17953 -4.24568,3.4375 -7.85186,6.23283 -8.01373,6.21185 -0.16187,-0.021 -2.7693,-2.08025 -5.7943,-4.57616 z m 2.66502,-161.09514 c -1.99808,-4.5209 -20.61335,-56.91706 -21.24234,-59.79055 -0.32435,-1.48176 1.1012,-3.29561 5.50148,-7 7.33739,-6.17702 7.40927,-6.90442 2.51994,-25.5 -12.62095,-48.00133 -48.07831,-80.7271 -101.79345,-93.95144 -6.68286,-1.64527 -20.02565,-4.15835 -29.65065,-5.58461 -29.953,-4.4385 -39.93996,-6.41569 -47.85089,-9.47336 -30.62285,-11.83611 -52.60078,-36.85248 -61.2769,-69.74844 -2.07379,-7.8629 -3.82301,-30.24215 -2.3638,-30.24215 0.43305,0 4.65832,3.72677 9.38948,8.28172 25.76302,24.80347 59.55128,40.53127 106.83478,49.72956 43.44974,8.45249 67.07205,16.54446 87.81351,30.08107 20.38094,13.30131 37.75389,31.03783 49.58158,50.61916 4.86065,8.04706 5.31442,8.50768 6.61426,6.71414 0.76756,-1.05911 4.47062,-6.65065 8.229,-12.42565 14.57526,-22.3958 35.48232,-40.42398 62.02898,-53.48765 16.78556,-8.26021 31.02761,-12.61323 65.45614,-20.00636 42.50326,-9.12708 63.21185,-16.53523 85.95164,-30.74774 10.55732,-6.59839 18.02901,-12.37532 27.68423,-21.40477 4.3247,-4.04442 8.39195,-7.35348 9.03833,-7.35348 1.96253,0 0.27043,20.14138 -2.57843,30.69152 -9.17569,33.9802 -32.63198,59.4788 -64.26442,69.85985 -10.34618,3.39537 -17.6329,4.89634 -43.69716,9.00099 -34.0541,5.36291 -52.39989,10.77093 -71.19057,20.98573 -35.2418,19.1578 -59.90952,54.5071 -64.87138,92.96191 l -0.64515,5 5.9532,6.49095 5.9532,6.49096 -3.48775,9.50904 c -1.91827,5.22998 -6.93344,19.40376 -11.14482,31.49729 -8.25815,23.71434 -9.49698,25.57896 -12.49204,18.80231 z m -108.6441,-21.36758 c -10.00368,-1.22285 -16.84593,-3.30988 -26.09144,-7.95843 -17.8742,-8.98697 -33.16605,-24.1768 -41.74304,-41.46454 -13.8346,-27.88498 -13.30206,-59.20331 1.54358,-90.77689 l 4.59701,-9.77688 7.58649,0.61391 c 21.84268,1.76755 44.69372,6.45106 55.38218,11.35104 l 4.00301,1.83513 -3.39935,1.12918 c -1.86965,0.62105 -4.74936,2.23306 -6.39936,3.58224 l -3,2.45306 3.93532,-1.05357 c 15.40986,-4.12556 28.76771,12.02367 21.58732,26.0984 -3.15988,6.19386 -7.31605,8.54438 -15.10814,8.54438 -5.58107,0 -7.20059,-0.42626 -10.6183,-2.79473 -2.30816,-1.59956 -4.80103,-4.49837 -5.82919,-6.77844 -0.98802,-2.19104 -2.28479,-3.8287 -2.88171,-3.63925 -2.39879,0.76134 -4.62412,10.05786 -4.27305,17.85109 0.43014,9.54821 3.60215,16.49463 11.35701,24.8708 9.09453,9.82318 20.45779,13.77707 34.10917,11.86842 12.59484,-1.76093 25.7696,-11.2804 30.7907,-22.24792 2.84286,-6.20964 4.81691,-15.72187 3.92502,-18.91324 -0.59115,-2.11523 -0.52385,-2.10226 1.46975,0.28327 3.26268,3.9041 9.77664,17.82687 11.69659,25 2.39677,8.95454 2.45824,28.44486 0.11369,36.04441 -3.01667,9.77811 -17.25803,22.94683 -31.34947,28.98825 -10.68085,4.5792 -27.60046,6.57762 -41.40379,4.89031 z m 193.18771,-1.39657 c -15.97524,-3.5998 -36.39584,-17.86135 -41.17836,-28.75856 -7.26813,-16.56081 -3.28909,-45.35003 8.70218,-62.96211 l 1.8344,-2.69427 1.19694,7.52287 c 1.4644,9.20385 5.01178,16.05314 11.88964,22.95651 19.57605,19.64865 51.82073,14.43814 64.07423,-10.35394 3.17888,-6.43173 3.82784,-8.84925 4.12515,-15.36709 0.33481,-7.33977 -1.84047,-17.88763 -3.68318,-17.85964 -0.3683,0.006 -1.41711,1.79012 -2.33069,3.96561 -1.14324,2.72239 -3.15262,4.90137 -6.44578,6.98983 -12.3718,7.84597 -27.39316,-0.3254 -27.39316,-14.90143 0,-7.76981 3.23521,-12.672 10.93413,-16.56811 3.42295,-1.73221 10.67397,-1.70397 15.56587,0.0606 1.9105,0.68916 1.90395,0.62041 -0.14636,-1.53622 -1.1805,-1.24171 -4.47641,-3.04645 -7.32424,-4.01054 l -5.17789,-1.75289 7.32425,-2.59804 c 14.92335,-5.29359 28.42142,-8.0022 47.32424,-9.4964 12.59523,-0.9956 11.74557,-1.41923 16.72225,8.33738 19.51787,38.26403 14.03123,84.17232 -13.52696,113.18392 -11.62863,12.24192 -25.47841,20.82889 -40.19529,24.92138 -8.26978,2.29967 -33.71422,2.85385 -42.29137,0.9211 z"
       id="path16" />
  </g>
</svg>
