<svg xmlns="http://www.w3.org/2000/svg" xmlns:xlink="http://www.w3.org/1999/xlink" width="500" zoomAndPan="magnify" viewBox="0 0 375 374.999991" height="500" preserveAspectRatio="xMidYMid meet" version="1.0"><defs><g/><clipPath id="ef1a93379b"><path d="M 71.398438 66.699219 L 161 66.699219 L 161 152 L 71.398438 152 Z M 71.398438 66.699219 " clip-rule="nonzero"/></clipPath><clipPath id="084a029136"><path d="M 133 66.699219 L 222 66.699219 L 222 153 L 133 153 Z M 133 66.699219 " clip-rule="nonzero"/></clipPath><clipPath id="5ea9c5557f"><path d="M 104 161 L 193 161 L 193 244.976562 L 104 244.976562 Z M 104 161 " clip-rule="nonzero"/></clipPath><clipPath id="ad6b1c188f"><path d="M 203 161 L 265.886719 161 L 265.886719 244.976562 L 203 244.976562 Z M 203 161 " clip-rule="nonzero"/></clipPath></defs><g clip-path="url(#ef1a93379b)"><path fill="#000000" d="M 160.976562 66.699219 L 126.140625 118.851562 L 126.140625 151.910156 L 104.789062 151.910156 L 104.789062 118.851562 L 71.511719 66.699219 L 95.507812 66.699219 L 116.667969 100.277344 L 138 66.699219 Z M 160.976562 66.699219 " fill-opacity="1" fill-rule="nonzero"/></g><g clip-path="url(#084a029136)"><path fill="#cb171e" d="M 196.832031 133.160156 L 158.183594 133.160156 L 150.324219 152.109375 L 133.207031 152.109375 L 169.398438 66.898438 L 186.902344 66.898438 L 221.625 152.109375 L 203.335938 152.109375 Z M 190.410156 116.148438 L 178.5625 84.878906 L 165.347656 116.148438 Z M 190.410156 116.148438 " fill-opacity="1" fill-rule="nonzero"/></g><g clip-path="url(#5ea9c5557f)"><path fill="#000000" d="M 104.785156 161.464844 L 104.785156 244.976562 L 122.734375 244.976562 L 122.734375 187.371094 L 141.519531 226.09375 L 155.644531 226.09375 L 175.070312 186.011719 L 175.070312 244.960938 L 192.289062 244.960938 L 192.289062 161.464844 L 168.777344 161.464844 L 147.917969 199.234375 L 128.054688 161.464844 Z M 104.785156 161.464844 " fill-opacity="1" fill-rule="nonzero"/></g><g clip-path="url(#ad6b1c188f)"><path fill="#000000" d="M 265.773438 226.828125 L 221.625 226.828125 L 221.625 161.445312 L 203.335938 161.445312 L 203.335938 244.601562 L 265.773438 244.601562 Z M 265.773438 226.828125 " fill-opacity="1" fill-rule="nonzero"/></g><g fill="#84560f" fill-opacity="1"><g transform="translate(71.399721, 300.249555)"><g><path d="M 80.265625 -52.5 C 80.691406 -52.75 81.070312 -52.75 81.40625 -52.5 C 81.75 -52.25 82.046875 -52.082031 82.296875 -52 C 83.992188 -54.695312 85.644531 -57.460938 87.25 -60.296875 C 88.851562 -63.128906 90.375 -66.109375 91.8125 -69.234375 C 92.40625 -70.503906 93.019531 -72.046875 93.65625 -73.859375 C 94.289062 -75.679688 94.710938 -77.585938 94.921875 -79.578125 C 95.128906 -81.566406 95.0625 -83.46875 94.71875 -85.28125 C 94.382812 -87.101562 93.582031 -88.601562 92.3125 -89.78125 C 91.132812 -90.96875 89.675781 -91.789062 87.9375 -92.25 C 86.207031 -92.71875 84.367188 -92.972656 82.421875 -93.015625 C 80.484375 -93.054688 78.539062 -92.925781 76.59375 -92.625 C 74.644531 -92.332031 72.867188 -92.019531 71.265625 -91.6875 C 67.710938 -90.757812 64.375 -89.640625 61.25 -88.328125 C 58.125 -87.015625 55.207031 -85.640625 52.5 -84.203125 C 46.75 -81.160156 41.296875 -77.90625 36.140625 -74.4375 C 30.984375 -70.96875 26.125 -67.164062 21.5625 -63.03125 C 19.863281 -61.414062 17.8125 -59.445312 15.40625 -57.125 C 13 -54.800781 10.945312 -52.203125 9.25 -49.328125 C 8.582031 -48.054688 7.929688 -46.535156 7.296875 -44.765625 C 6.660156 -42.992188 6.765625 -41.257812 7.609375 -39.5625 C 8.703125 -37.363281 10.875 -35.523438 14.125 -34.046875 C 17.382812 -32.566406 21.148438 -31.085938 25.421875 -29.609375 C 29.691406 -28.128906 34.210938 -26.5 38.984375 -24.71875 C 43.765625 -22.945312 48.226562 -20.707031 52.375 -18 C 54.65625 -19.351562 57.210938 -20.875 60.046875 -22.5625 C 62.878906 -24.257812 65.859375 -25.992188 68.984375 -27.765625 C 72.109375 -29.546875 75.296875 -31.300781 78.546875 -33.03125 C 81.804688 -34.769531 85.003906 -36.398438 88.140625 -37.921875 C 89.828125 -38.679688 91.007812 -39.269531 91.6875 -39.6875 C 92.363281 -40.113281 92.953125 -40.15625 93.453125 -39.8125 C 93.710938 -39.132812 93.609375 -38.691406 93.140625 -38.484375 C 92.679688 -38.273438 92.238281 -38.046875 91.8125 -37.796875 C 85.132812 -34.660156 78.75 -31.296875 72.65625 -27.703125 C 66.570312 -24.109375 60.40625 -20.539062 54.15625 -17 C 54.820312 -16.320312 55.679688 -15.515625 56.734375 -14.578125 C 57.796875 -13.648438 58.789062 -12.570312 59.71875 -11.34375 C 60.65625 -10.125 61.421875 -8.726562 62.015625 -7.15625 C 62.609375 -5.59375 62.816406 -3.882812 62.640625 -2.03125 C 62.472656 0.675781 61.585938 2.976562 59.984375 4.875 C 58.378906 6.78125 56.769531 8.453125 55.15625 9.890625 C 53.132812 11.660156 50.6875 13.453125 47.8125 15.265625 C 44.9375 17.085938 41.910156 18.738281 38.734375 20.21875 C 35.566406 21.707031 32.394531 23 29.21875 24.09375 C 26.050781 25.195312 23.195312 25.851562 20.65625 26.0625 C 18.125 26.269531 16.015625 26.015625 14.328125 25.296875 C 12.640625 24.578125 11.664062 23.203125 11.40625 21.171875 C 11.238281 19.648438 11.363281 18.234375 11.78125 16.921875 C 12.207031 15.617188 12.71875 14.414062 13.3125 13.3125 C 14.914062 10.269531 17.21875 7.3125 20.21875 4.4375 C 23.226562 1.5625 26.460938 -1.140625 29.921875 -3.671875 C 33.390625 -6.210938 36.960938 -8.601562 40.640625 -10.84375 C 44.316406 -13.082031 47.675781 -15.132812 50.71875 -17 C 47.59375 -19.195312 44.191406 -21.035156 40.515625 -22.515625 C 36.835938 -23.992188 33.179688 -25.34375 29.546875 -26.5625 C 25.910156 -27.789062 22.484375 -28.972656 19.265625 -30.109375 C 16.054688 -31.253906 13.3125 -32.546875 11.03125 -33.984375 C 8.75 -35.421875 7.078125 -37.085938 6.015625 -38.984375 C 4.960938 -40.890625 4.859375 -43.238281 5.703125 -46.03125 C 6.546875 -48.226562 7.601562 -50.273438 8.875 -52.171875 C 10.144531 -54.078125 11.519531 -55.851562 13 -57.5 C 14.476562 -59.15625 16.019531 -60.742188 17.625 -62.265625 C 19.226562 -63.785156 20.878906 -65.265625 22.578125 -66.703125 C 27.898438 -71.441406 33.878906 -75.921875 40.515625 -80.140625 C 47.148438 -84.367188 53.976562 -87.878906 61 -90.671875 C 64.039062 -91.941406 67.226562 -93.0625 70.5625 -94.03125 C 73.90625 -95 77.4375 -95.523438 81.15625 -95.609375 C 85.976562 -95.703125 89.890625 -94.710938 92.890625 -92.640625 C 95.890625 -90.566406 97.472656 -87.207031 97.640625 -82.5625 C 97.816406 -80.1875 97.609375 -77.984375 97.015625 -75.953125 C 96.421875 -73.929688 95.785156 -72.03125 95.109375 -70.25 C 93.835938 -67.039062 92.25 -63.765625 90.34375 -60.421875 C 88.445312 -57.085938 86.523438 -53.984375 84.578125 -51.109375 C 84.328125 -50.679688 84.007812 -50.171875 83.625 -49.578125 C 83.25 -48.992188 82.765625 -48.703125 82.171875 -48.703125 C 81.328125 -48.609375 80.609375 -49.003906 80.015625 -49.890625 C 79.421875 -50.785156 79.503906 -51.65625 80.265625 -52.5 Z M 52 -15.59375 C 49.03125 -13.820312 45.75 -11.816406 42.15625 -9.578125 C 38.570312 -7.335938 35.066406 -4.945312 31.640625 -2.40625 C 28.210938 0.125 25.0625 2.828125 22.1875 5.703125 C 19.3125 8.578125 17.113281 11.535156 15.59375 14.578125 C 15.09375 15.679688 14.609375 16.84375 14.140625 18.0625 C 13.671875 19.289062 13.734375 20.625 14.328125 22.0625 C 15.085938 22.988281 16.1875 23.492188 17.625 23.578125 C 19.0625 23.671875 20.414062 23.628906 21.6875 23.453125 C 25.65625 22.867188 29.222656 21.8125 32.390625 20.28125 C 35.566406 18.757812 38.632812 17.28125 41.59375 15.84375 C 43.539062 14.832031 45.421875 13.734375 47.234375 12.546875 C 49.054688 11.367188 50.8125 10.101562 52.5 8.75 C 54.101562 7.226562 55.664062 5.707031 57.1875 4.1875 C 58.707031 2.664062 59.679688 0.59375 60.109375 -2.03125 C 60.273438 -3.632812 60.144531 -5.132812 59.71875 -6.53125 C 59.300781 -7.925781 58.691406 -9.191406 57.890625 -10.328125 C 57.085938 -11.472656 56.195312 -12.488281 55.21875 -13.375 C 54.25 -14.257812 53.300781 -15.039062 52.375 -15.71875 C 52.207031 -15.71875 52.082031 -15.675781 52 -15.59375 Z M 52 -15.59375 "/></g></g></g><g fill="#84560f" fill-opacity="1"><g transform="translate(163.074879, 300.249555)"><g><path d="M 11.921875 -46.921875 C 10.648438 -46.835938 9.65625 -46.5 8.9375 -45.90625 C 8.21875 -45.3125 7.476562 -44.71875 6.71875 -44.125 C 5.875 -43.28125 4.941406 -42.304688 3.921875 -41.203125 C 2.910156 -40.109375 1.941406 -38.90625 1.015625 -37.59375 C 0.0859375 -36.289062 -0.691406 -34.875 -1.328125 -33.34375 C -1.960938 -31.820312 -2.28125 -30.257812 -2.28125 -28.65625 C -2.28125 -27.644531 -2.066406 -26.648438 -1.640625 -25.671875 C -1.222656 -24.703125 -0.550781 -24.007812 0.375 -23.59375 C 2.320312 -23 4.097656 -23.0625 5.703125 -23.78125 C 7.304688 -24.5 8.785156 -25.320312 10.140625 -26.25 C 12.847656 -27.9375 15.003906 -29.457031 16.609375 -30.8125 C 18.210938 -32.164062 20.113281 -33.644531 22.3125 -35.25 C 22.738281 -35.675781 23.203125 -36.054688 23.703125 -36.390625 C 24.210938 -36.734375 24.765625 -37.113281 25.359375 -37.53125 C 25.785156 -37.957031 26.25 -38.378906 26.75 -38.796875 C 27.257812 -39.222656 27.851562 -39.394531 28.53125 -39.3125 C 28.695312 -38.800781 28.632812 -38.394531 28.34375 -38.09375 C 28.050781 -37.800781 27.773438 -37.570312 27.515625 -37.40625 C 24.140625 -34.875 21.097656 -32.507812 18.390625 -30.3125 C 15.679688 -28.113281 13.207031 -26.253906 10.96875 -24.734375 C 8.726562 -23.210938 6.675781 -22.15625 4.8125 -21.5625 C 2.957031 -20.96875 1.140625 -21.007812 -0.640625 -21.6875 C -2.835938 -22.957031 -4.0625 -25.113281 -4.3125 -28.15625 C -4.476562 -30.945312 -3.925781 -33.394531 -2.65625 -35.5 C -1.394531 -37.613281 -0.171875 -39.476562 1.015625 -41.09375 C 2.367188 -42.78125 3.828125 -44.363281 5.390625 -45.84375 C 6.953125 -47.320312 8.832031 -48.441406 11.03125 -49.203125 C 11.113281 -49.203125 11.15625 -49.222656 11.15625 -49.265625 C 11.15625 -49.304688 11.195312 -49.328125 11.28125 -49.328125 C 11.707031 -49.328125 12.046875 -49.304688 12.296875 -49.265625 C 12.554688 -49.222656 12.8125 -49.160156 13.0625 -49.078125 C 13.988281 -48.566406 14.410156 -47.738281 14.328125 -46.59375 C 14.242188 -45.457031 13.988281 -44.34375 13.5625 -43.25 C 13.3125 -42.738281 13.015625 -42.269531 12.671875 -41.84375 C 12.335938 -41.425781 12.085938 -41.003906 11.921875 -40.578125 C 11.753906 -40.160156 11.582031 -39.632812 11.40625 -39 C 11.238281 -38.363281 10.734375 -38.128906 9.890625 -38.296875 C 9.378906 -38.378906 9.082031 -38.609375 9 -38.984375 C 8.914062 -39.367188 8.9375 -39.769531 9.0625 -40.1875 C 9.1875 -40.613281 9.351562 -41.039062 9.5625 -41.46875 C 9.78125 -41.894531 10.015625 -42.191406 10.265625 -42.359375 C 10.609375 -43.117188 10.945312 -43.835938 11.28125 -44.515625 C 11.625 -45.191406 11.835938 -45.992188 11.921875 -46.921875 Z M 11.921875 -46.921875 "/></g></g></g><g fill="#84560f" fill-opacity="1"><g transform="translate(190.5901, 300.249555)"><g><path d="M 3.671875 -40.578125 C 4.523438 -40.742188 5.457031 -40.828125 6.46875 -40.828125 C 7.476562 -40.828125 8.113281 -40.445312 8.375 -39.6875 C 8.375 -38.25 8.097656 -36.875 7.546875 -35.5625 C 6.992188 -34.257812 6.378906 -32.972656 5.703125 -31.703125 C 5.023438 -30.429688 4.429688 -29.117188 3.921875 -27.765625 C 3.421875 -26.421875 3.253906 -24.984375 3.421875 -23.453125 C 4.523438 -23.453125 5.539062 -23.707031 6.46875 -24.21875 C 7.394531 -24.726562 8.28125 -25.28125 9.125 -25.875 C 11.582031 -27.5625 13.929688 -29.375 16.171875 -31.3125 C 18.410156 -33.257812 20.753906 -35.082031 23.203125 -36.78125 C 23.628906 -37.113281 24.179688 -37.578125 24.859375 -38.171875 C 25.535156 -38.765625 26.1875 -39.289062 26.8125 -39.75 C 27.445312 -40.21875 28.039062 -40.535156 28.59375 -40.703125 C 29.144531 -40.867188 29.546875 -40.785156 29.796875 -40.453125 C 29.796875 -40.023438 29.601562 -39.726562 29.21875 -39.5625 C 28.84375 -39.394531 28.53125 -39.226562 28.28125 -39.0625 C 26.332031 -37.875 24.382812 -36.429688 22.4375 -34.734375 C 20.5 -33.046875 18.535156 -31.359375 16.546875 -29.671875 C 14.554688 -27.984375 12.546875 -26.421875 10.515625 -24.984375 C 8.492188 -23.546875 6.46875 -22.445312 4.4375 -21.6875 C 3.507812 -21.601562 2.75 -21.769531 2.15625 -22.1875 C 1.476562 -23.207031 1.265625 -24.390625 1.515625 -25.734375 C 1.773438 -27.085938 2.21875 -28.523438 2.84375 -30.046875 C 3.476562 -31.578125 4.175781 -33.082031 4.9375 -34.5625 C 5.707031 -36.039062 6.21875 -37.367188 6.46875 -38.546875 C 5.789062 -38.460938 4.984375 -38.359375 4.046875 -38.234375 C 3.117188 -38.109375 2.234375 -38.066406 1.390625 -38.109375 C 0.546875 -38.148438 -0.210938 -38.316406 -0.890625 -38.609375 C -1.566406 -38.910156 -2.03125 -39.441406 -2.28125 -40.203125 C -2.53125 -41.890625 -2.0625 -43.515625 -0.875 -45.078125 C 0.300781 -46.640625 1.476562 -47.757812 2.65625 -48.4375 C 3.332031 -48.863281 4.007812 -49.097656 4.6875 -49.140625 C 5.363281 -49.179688 6 -48.863281 6.59375 -48.1875 C 6.84375 -47.34375 6.90625 -46.582031 6.78125 -45.90625 C 6.65625 -45.226562 6.421875 -44.570312 6.078125 -43.9375 C 5.742188 -43.300781 5.34375 -42.707031 4.875 -42.15625 C 4.414062 -41.613281 4.015625 -41.085938 3.671875 -40.578125 Z M 0.25 -41.09375 C 0.507812 -40.75 0.929688 -40.578125 1.515625 -40.578125 C 2.273438 -41.503906 3.054688 -42.429688 3.859375 -43.359375 C 4.671875 -44.296875 5.078125 -45.484375 5.078125 -46.921875 L 4.8125 -46.921875 C 3.800781 -46.160156 2.851562 -45.359375 1.96875 -44.515625 C 1.082031 -43.671875 0.507812 -42.53125 0.25 -41.09375 Z M 0.25 -41.09375 "/></g></g></g><g fill="#84560f" fill-opacity="1"><g transform="translate(218.10532, 300.249555)"><g><path d="M 5.078125 -49.328125 C 5.578125 -49.410156 5.972656 -49.328125 6.265625 -49.078125 C 6.566406 -48.828125 6.757812 -48.507812 6.84375 -48.125 C 6.925781 -47.738281 6.882812 -47.378906 6.71875 -47.046875 C 6.550781 -46.710938 6.253906 -46.546875 5.828125 -46.546875 C 5.148438 -46.546875 4.6875 -46.925781 4.4375 -47.6875 C 4.1875 -48.445312 4.398438 -48.992188 5.078125 -49.328125 Z M -2.03125 -26.375 C -0.84375 -26.289062 0.253906 -26.546875 1.265625 -27.140625 C 2.285156 -27.734375 3.257812 -28.320312 4.1875 -28.90625 C 6.46875 -30.34375 8.707031 -31.863281 10.90625 -33.46875 C 13.101562 -35.082031 15.425781 -36.566406 17.875 -37.921875 C 18.300781 -38.085938 18.8125 -38.335938 19.40625 -38.671875 C 20 -39.015625 20.503906 -38.972656 20.921875 -38.546875 C 20.835938 -37.953125 20.476562 -37.550781 19.84375 -37.34375 C 19.207031 -37.132812 18.679688 -36.90625 18.265625 -36.65625 C 15.804688 -35.300781 13.4375 -33.796875 11.15625 -32.140625 C 8.875 -30.492188 6.59375 -28.910156 4.3125 -27.390625 C 3.382812 -26.796875 2.390625 -26.203125 1.328125 -25.609375 C 0.273438 -25.023438 -0.882812 -24.691406 -2.15625 -24.609375 C -3.164062 -24.941406 -3.835938 -25.53125 -4.171875 -26.375 C -4.515625 -27.21875 -4.625 -28.1875 -4.5 -29.28125 C -4.375 -30.382812 -4.117188 -31.503906 -3.734375 -32.640625 C -3.359375 -33.785156 -2.957031 -34.828125 -2.53125 -35.765625 C -2.195312 -36.359375 -1.898438 -36.882812 -1.640625 -37.34375 C -1.390625 -37.8125 -1.097656 -38.34375 -0.765625 -38.9375 C -0.421875 -39.4375 -0.0390625 -40.023438 0.375 -40.703125 C 0.800781 -41.378906 1.269531 -41.71875 1.78125 -41.71875 C 2.195312 -41.800781 2.53125 -41.691406 2.78125 -41.390625 C 3.039062 -41.097656 3.171875 -40.828125 3.171875 -40.578125 C 3.253906 -39.898438 3.019531 -39.304688 2.46875 -38.796875 C 1.925781 -38.296875 1.523438 -37.832031 1.265625 -37.40625 C 0.847656 -36.90625 0.507812 -36.316406 0.25 -35.640625 C 0 -34.960938 -0.296875 -34.242188 -0.640625 -33.484375 C -0.804688 -33.054688 -1.035156 -32.523438 -1.328125 -31.890625 C -1.628906 -31.253906 -1.882812 -30.597656 -2.09375 -29.921875 C -2.300781 -29.242188 -2.425781 -28.585938 -2.46875 -27.953125 C -2.507812 -27.328125 -2.363281 -26.800781 -2.03125 -26.375 Z M -2.03125 -26.375 "/></g></g></g><g fill="#84560f" fill-opacity="1"><g transform="translate(238.266225, 300.249555)"><g><path d="M -5.453125 -19.15625 C -5.617188 -19.15625 -5.660156 -19.109375 -5.578125 -19.015625 C -5.492188 -18.929688 -5.453125 -18.976562 -5.453125 -19.15625 C -4.265625 -21.4375 -2.972656 -23.628906 -1.578125 -25.734375 C -0.191406 -27.847656 1.347656 -29.835938 3.046875 -31.703125 C 3.722656 -32.628906 4.503906 -33.515625 5.390625 -34.359375 C 6.273438 -35.210938 7.226562 -36.0625 8.25 -36.90625 C 9.257812 -37.664062 10.351562 -38.425781 11.53125 -39.1875 C 12.71875 -39.945312 13.945312 -40.410156 15.21875 -40.578125 C 16.488281 -40.660156 17.414062 -40.40625 18 -39.8125 C 18.675781 -39.050781 18.910156 -38.035156 18.703125 -36.765625 C 18.492188 -35.503906 18.175781 -34.535156 17.75 -33.859375 C 19.695312 -34.785156 21.8125 -35.734375 24.09375 -36.703125 C 26.375 -37.679688 28.742188 -38.46875 31.203125 -39.0625 C 31.453125 -39.144531 31.804688 -39.226562 32.265625 -39.3125 C 32.734375 -39.394531 33.007812 -39.222656 33.09375 -38.796875 C 33.175781 -38.546875 33.046875 -38.335938 32.703125 -38.171875 C 32.367188 -38.003906 31.945312 -37.832031 31.4375 -37.65625 C 30.9375 -37.488281 30.453125 -37.363281 29.984375 -37.28125 C 29.523438 -37.195312 29.164062 -37.113281 28.90625 -37.03125 C 26.539062 -36.269531 24.34375 -35.421875 22.3125 -34.484375 C 20.289062 -33.554688 18.347656 -32.546875 16.484375 -31.453125 C 13.773438 -27.390625 10.816406 -23.835938 7.609375 -20.796875 C 6.929688 -20.203125 6.019531 -19.394531 4.875 -18.375 C 3.738281 -17.363281 2.578125 -16.457031 1.390625 -15.65625 C 0.210938 -14.851562 -0.921875 -14.28125 -2.015625 -13.9375 C -3.117188 -13.601562 -3.925781 -13.773438 -4.4375 -14.453125 C -4.78125 -14.960938 -4.800781 -15.597656 -4.5 -16.359375 C -4.207031 -17.117188 -3.890625 -17.753906 -3.546875 -18.265625 C -3.296875 -18.679688 -2.976562 -19.097656 -2.59375 -19.515625 C -2.21875 -19.941406 -1.859375 -20.328125 -1.515625 -20.671875 C 0.847656 -23.035156 3.445312 -25.101562 6.28125 -26.875 C 9.113281 -28.65625 11.878906 -30.390625 14.578125 -32.078125 C 15.003906 -33.015625 15.554688 -33.988281 16.234375 -35 C 16.910156 -36.007812 17.078125 -37.234375 16.734375 -38.671875 C 15.046875 -38.847656 13.609375 -38.554688 12.421875 -37.796875 C 11.242188 -37.035156 10.1875 -36.269531 9.25 -35.5 C 8.238281 -34.738281 7.289062 -33.894531 6.40625 -32.96875 C 5.519531 -32.039062 4.648438 -31.113281 3.796875 -30.1875 C -0.597656 -24.9375 -4.125 -18.953125 -6.78125 -12.234375 C -9.445312 -5.515625 -11.457031 2.03125 -12.8125 10.40625 C -12.894531 10.820312 -12.957031 11.367188 -13 12.046875 C -13.039062 12.722656 -13.125 13.398438 -13.25 14.078125 C -13.375 14.753906 -13.5625 15.34375 -13.8125 15.84375 C -14.070312 16.351562 -14.367188 16.609375 -14.703125 16.609375 C -15.128906 16.609375 -15.445312 16.476562 -15.65625 16.21875 C -15.875 15.96875 -16.003906 15.628906 -16.046875 15.203125 C -16.085938 14.785156 -16.0625 14.34375 -15.96875 13.875 C -15.882812 13.414062 -15.84375 13.019531 -15.84375 12.6875 C -15.257812 7.863281 -14.332031 2.707031 -13.0625 -2.78125 C -11.789062 -8.28125 -10.179688 -13.816406 -8.234375 -19.390625 C -6.296875 -24.972656 -4.078125 -30.40625 -1.578125 -35.6875 C 0.910156 -40.976562 3.632812 -45.78125 6.59375 -50.09375 C 6.84375 -50.34375 7.15625 -50.675781 7.53125 -51.09375 C 7.914062 -51.519531 8.34375 -51.878906 8.8125 -52.171875 C 9.28125 -52.472656 9.722656 -52.625 10.140625 -52.625 C 10.566406 -52.625 10.945312 -52.328125 11.28125 -51.734375 C 11.28125 -50.722656 11.066406 -49.941406 10.640625 -49.390625 C 10.222656 -48.835938 9.847656 -48.222656 9.515625 -47.546875 C 8.753906 -46.285156 7.632812 -44.785156 6.15625 -43.046875 C 4.675781 -41.316406 3.21875 -39.269531 1.78125 -36.90625 C 1.351562 -36.3125 1.007812 -35.632812 0.75 -34.875 C 0.5 -34.113281 0.164062 -33.394531 -0.25 -32.71875 C -2.113281 -28.40625 -3.847656 -23.96875 -5.453125 -19.40625 Z M 12.171875 -29.046875 C 9.128906 -27.179688 6.296875 -25.191406 3.671875 -23.078125 C 2.328125 -22.066406 1.019531 -20.96875 -0.25 -19.78125 C -1.519531 -18.59375 -2.492188 -17.15625 -3.171875 -15.46875 C -1.304688 -15.976562 0.316406 -16.800781 1.703125 -17.9375 C 3.097656 -19.082031 4.390625 -20.25 5.578125 -21.4375 C 6.765625 -22.613281 7.945312 -23.816406 9.125 -25.046875 C 10.3125 -26.273438 11.453125 -27.609375 12.546875 -29.046875 C 12.460938 -29.128906 12.421875 -29.171875 12.421875 -29.171875 C 12.421875 -29.085938 12.335938 -29.046875 12.171875 -29.046875 Z M 12.171875 -29.046875 "/></g></g></g><g fill="#84560f" fill-opacity="1"><g transform="translate(270.219399, 300.249555)"><g><path d="M 29.546875 -68.609375 C 30.898438 -68.691406 33.054688 -68.796875 36.015625 -68.921875 C 38.972656 -69.046875 42.054688 -69.066406 45.265625 -68.984375 C 48.484375 -68.898438 51.484375 -68.707031 54.265625 -68.40625 C 57.054688 -68.113281 59.003906 -67.546875 60.109375 -66.703125 C 60.191406 -66.535156 60.378906 -66.28125 60.671875 -65.9375 C 60.972656 -65.601562 61.226562 -65.222656 61.4375 -64.796875 C 61.644531 -64.378906 61.726562 -63.976562 61.6875 -63.59375 C 61.644531 -63.21875 61.375 -62.988281 60.875 -62.90625 C 60.28125 -62.726562 59.75 -62.976562 59.28125 -63.65625 C 58.820312 -64.332031 58.378906 -64.84375 57.953125 -65.1875 C 56.765625 -65.769531 54.816406 -66.1875 52.109375 -66.4375 C 49.410156 -66.695312 46.515625 -66.847656 43.421875 -66.890625 C 40.335938 -66.929688 37.378906 -66.910156 34.546875 -66.828125 C 31.722656 -66.742188 29.632812 -66.703125 28.28125 -66.703125 C 26.59375 -64.671875 24.835938 -62.453125 23.015625 -60.046875 C 21.203125 -57.640625 18.601562 -54.53125 15.21875 -50.71875 C 12.851562 -48.1875 10.484375 -45.671875 8.109375 -43.171875 C 5.742188 -40.679688 3.164062 -38.421875 0.375 -36.390625 C -0.125 -34.535156 -0.648438 -32.507812 -1.203125 -30.3125 C -1.753906 -28.113281 -2.15625 -25.914062 -2.40625 -23.71875 C -2.570312 -21.257812 -2.550781 -18.867188 -2.34375 -16.546875 C -2.132812 -14.222656 -1.269531 -12.46875 0.25 -11.28125 C 2.03125 -11.03125 3.722656 -11.453125 5.328125 -12.546875 C 6.929688 -13.648438 8.238281 -14.664062 9.25 -15.59375 C 11.539062 -17.375 13.828125 -19.296875 16.109375 -21.359375 C 18.390625 -23.429688 20.628906 -25.546875 22.828125 -27.703125 C 25.023438 -29.859375 27.113281 -32.015625 29.09375 -34.171875 C 31.082031 -36.328125 32.882812 -38.378906 34.5 -40.328125 C 34.832031 -40.742188 35.125 -41.1875 35.375 -41.65625 C 35.632812 -42.125 36.0625 -42.273438 36.65625 -42.109375 C 37.070312 -41.515625 37.046875 -41.003906 36.578125 -40.578125 C 36.117188 -40.160156 35.757812 -39.78125 35.5 -39.4375 C 34.570312 -38.25 33.597656 -37.0625 32.578125 -35.875 C 31.566406 -34.695312 30.554688 -33.5625 29.546875 -32.46875 C 28.109375 -30.945312 26.710938 -29.445312 25.359375 -27.96875 C 24.003906 -26.488281 22.566406 -25.070312 21.046875 -23.71875 C 19.609375 -22.195312 18.128906 -20.757812 16.609375 -19.40625 C 15.085938 -18.050781 13.523438 -16.695312 11.921875 -15.34375 C 11.242188 -14.914062 10.503906 -14.34375 9.703125 -13.625 C 8.898438 -12.90625 8.050781 -12.1875 7.15625 -11.46875 C 6.269531 -10.757812 5.296875 -10.171875 4.234375 -9.703125 C 3.179688 -9.234375 2.023438 -9.082031 0.765625 -9.25 C 0.00390625 -9.34375 -0.628906 -9.578125 -1.140625 -9.953125 C -1.648438 -10.335938 -2.113281 -10.78125 -2.53125 -11.28125 C -3.550781 -12.800781 -4.1875 -14.640625 -4.4375 -16.796875 C -4.6875 -18.953125 -4.726562 -21.148438 -4.5625 -23.390625 C -4.394531 -25.628906 -4.078125 -27.828125 -3.609375 -29.984375 C -3.148438 -32.140625 -2.664062 -34.066406 -2.15625 -35.765625 C -2.320312 -36.179688 -2.488281 -36.492188 -2.65625 -36.703125 C -2.832031 -36.921875 -2.878906 -37.238281 -2.796875 -37.65625 C -2.617188 -38.082031 -2.425781 -38.335938 -2.21875 -38.421875 C -2.007812 -38.503906 -1.691406 -38.585938 -1.265625 -38.671875 C 0.253906 -43.660156 2.050781 -48.332031 4.125 -52.6875 C 6.195312 -57.039062 8.457031 -61.25 10.90625 -65.3125 C 5.832031 -64.882812 1.015625 -64.289062 -3.546875 -63.53125 C -8.117188 -62.769531 -12.984375 -62.265625 -18.140625 -62.015625 C -18.984375 -62.179688 -19.71875 -62.429688 -20.34375 -62.765625 C -20.976562 -63.109375 -21.296875 -63.703125 -21.296875 -64.546875 C -21.296875 -65.140625 -21.039062 -65.582031 -20.53125 -65.875 C -20.03125 -66.175781 -19.441406 -66.367188 -18.765625 -66.453125 C -18.085938 -66.535156 -17.390625 -66.535156 -16.671875 -66.453125 C -15.953125 -66.367188 -15.34375 -66.238281 -14.84375 -66.0625 C -14.582031 -65.8125 -14.535156 -65.515625 -14.703125 -65.171875 C -14.878906 -64.835938 -14.96875 -64.628906 -14.96875 -64.546875 C -10.570312 -64.796875 -6.128906 -65.195312 -1.640625 -65.75 C 2.835938 -66.300781 7.359375 -66.742188 11.921875 -67.078125 C 14.035156 -70.035156 16.359375 -73.117188 18.890625 -76.328125 C 21.429688 -79.546875 24.304688 -82.335938 27.515625 -84.703125 C 28.535156 -85.378906 29.675781 -86.117188 30.9375 -86.921875 C 32.207031 -87.734375 33.5625 -88.140625 35 -88.140625 C 37.28125 -88.140625 38.296875 -86.867188 38.046875 -84.328125 C 37.878906 -82.804688 37.410156 -81.328125 36.640625 -79.890625 C 35.878906 -78.453125 35.117188 -77.097656 34.359375 -75.828125 C 33.515625 -74.484375 32.691406 -73.21875 31.890625 -72.03125 C 31.085938 -70.84375 30.304688 -69.703125 29.546875 -68.609375 Z M 28.40625 -82.9375 C 25.695312 -80.820312 23.179688 -78.390625 20.859375 -75.640625 C 18.535156 -72.890625 16.53125 -70.164062 14.84375 -67.46875 C 16.863281 -67.632812 18.910156 -67.78125 20.984375 -67.90625 C 23.054688 -68.03125 25.148438 -68.179688 27.265625 -68.359375 C 28.535156 -70.128906 29.820312 -71.960938 31.125 -73.859375 C 32.4375 -75.765625 33.644531 -77.734375 34.75 -79.765625 C 35.164062 -80.691406 35.585938 -81.679688 36.015625 -82.734375 C 36.441406 -83.796875 36.523438 -84.921875 36.265625 -86.109375 C 34.828125 -86.441406 33.410156 -86.1875 32.015625 -85.34375 C 30.617188 -84.5 29.414062 -83.695312 28.40625 -82.9375 Z M 13.703125 -65.6875 C 11.242188 -61.71875 8.976562 -57.578125 6.90625 -53.265625 C 4.832031 -48.953125 2.992188 -44.382812 1.390625 -39.5625 C 5.785156 -43.539062 10.007812 -47.8125 14.0625 -52.375 C 18.125 -56.9375 22.019531 -61.628906 25.75 -66.453125 C 25.75 -66.535156 25.703125 -66.578125 25.609375 -66.578125 C 23.671875 -66.410156 21.6875 -66.257812 19.65625 -66.125 C 17.625 -66 15.640625 -65.851562 13.703125 -65.6875 Z M 13.703125 -65.6875 "/></g></g></g></svg>